<?xml version="1.0" encoding="UTF-8"?>
<svg id="Calque_2" data-name="Calque 2" xmlns="http://www.w3.org/2000/svg" viewBox="0 0 503.65 500.59">
  <defs>
    <style>
      .cls-1 {
        fill: #f3fff3;
      }
    </style>
  </defs>
  <g id="Calque_2-2" data-name="Calque 2">
    <g>
      <circle class="cls-1" cx="409.74" cy="94.57" r="28.25"/>
      <circle class="cls-1" cx="253.69" cy="28.25" r="28.25"/>
      <circle class="cls-1" cx="253.69" cy="472.34" r="28.25"/>
      <circle class="cls-1" cx="475.4" cy="250.63" r="28.25"/>
      <circle class="cls-1" cx="28.25" cy="250.63" r="28.25"/>
      <circle class="cls-1" cx="409.74" cy="406.68" r="28.25"/>
      <circle class="cls-1" cx="97.63" cy="406.68" r="28.25"/>
      <circle class="cls-1" cx="97.64" cy="94.57" r="28.25"/>
    </g>
    <g>
      <path class="cls-1" d="M137.22,260.14c13.98,1.56,27.25,5.51,39.39,11.43,1.33-6.78,2.02-13.78,2.02-20.95s-.7-14.16-2.02-20.95c-12.03,5.87-25.18,9.8-39.02,11.39,1.49,6.26,1.39,12.84-.36,19.08Z"/>
      <path class="cls-1" d="M319.81,277.65c-1.99-8.69-3.05-17.74-3.05-27.03s1.06-18.33,3.04-27.03c-15.83-9.85-29.23-23.25-39.08-39.08-8.69,1.99-17.74,3.04-27.03,3.04s-18.34-1.06-27.03-3.05c-9.85,15.83-23.25,29.23-39.08,39.08,1.99,8.7,3.04,17.74,3.04,27.03s-1.06,18.33-3.05,27.02c15.84,9.86,29.24,23.26,39.1,39.1,8.69-1.99,17.74-3.05,27.03-3.05s18.33,1.05,27.03,3.04c9.85-15.83,23.25-29.23,39.08-39.08Z"/>
      <path class="cls-1" d="M214.59,181.1c-8.03,12.05-18.39,22.41-30.44,30.44-.61-1.8-1.26-3.57-1.95-5.32-.68-1.72-1.4-3.43-2.17-5.11-.37-.84-.75-1.67-1.15-2.5,0-.02-.01-.03-.02-.05-.4-.84-.81-1.67-1.23-2.49-.41-.83-.84-1.65-1.29-2.46-.41-.8-.85-1.58-1.29-2.36-.02-.04-.04-.08-.07-.12-.4-.73-.82-1.45-1.26-2.16-.04-.11-.11-.22-.18-.32-.43-.73-.87-1.45-1.32-2.16-.03-.06-.06-.11-.1-.16-.45-.73-.92-1.45-1.4-2.17-.03-.07-.08-.14-.13-.2-.39-.6-.79-1.19-1.2-1.78-.16-.26-.34-.52-.54-.77-.43-.64-.88-1.27-1.34-1.89-.53-.75-1.08-1.48-1.65-2.21-.54-.74-1.11-1.46-1.69-2.18-.56-.72-1.14-1.42-1.73-2.12t-.02-.02c4.12-2.72,7.68-6.23,10.46-10.31,.01-.01,.02-.02,.03-.03t.01-.02c1.02-1.11,2.02-2.23,2.99-3.38,.25,.22,.5,.43,.76,.64,.45,.37,.9,.74,1.35,1.1,.51,.41,1.02,.81,1.53,1.2,.54,.42,1.09,.84,1.65,1.25,.43,.33,.86,.65,1.3,.96,.5,.37,1,.73,1.5,1.08,.47,.33,.95,.66,1.43,1,1.04,.71,2.09,1.41,3.16,2.08,.46,.3,.93,.59,1.4,.88,.73,.46,1.46,.9,2.2,1.33,.71,.42,1.43,.84,2.15,1.24,.74,.42,1.49,.83,2.23,1.23,.01,.01,.03,.02,.04,.02,.41,.22,.81,.44,1.22,.65,.68,.35,1.36,.7,2.04,1.04,1.19,.59,2.39,1.16,3.59,1.71,.6,.28,1.21,.55,1.82,.81,.6,.27,1.21,.53,1.82,.78,.01,.01,.02,.02,.03,.02,.61,.25,1.22,.5,1.84,.74,1.24,.5,2.48,.98,3.74,1.42,.62,.23,1.25,.45,1.88,.67Z"/>
      <path class="cls-1" d="M345.06,172.84c-.26,.31-.52,.62-.77,.94-.61,.74-1.21,1.49-1.8,2.25-.47,.59-.93,1.19-1.39,1.8-.09,.12-.18,.25-.27,.37-.07,.09-.14,.17-.2,.26-.53,.72-1.06,1.45-1.58,2.18-.56,.79-1.1,1.58-1.64,2.37-.54,.8-1.07,1.6-1.59,2.41-.4,.63-.79,1.26-1.18,1.89-.15,.24-.29,.48-.44,.72-.52,.86-1.03,1.73-1.53,2.6-.01,.02-.02,.03-.03,.05-.42,.72-.82,1.45-1.22,2.19-.01,.02-.02,.04-.03,.06-.01,.02-.03,.05-.04,.07-.44,.81-.87,1.63-1.29,2.45-.45,.86-.88,1.73-1.3,2.6-.42,.87-.83,1.75-1.23,2.63-.38,.84-.75,1.68-1.11,2.52-.03,.05-.05,.1-.06,.15-.38,.9-.75,1.8-1.11,2.7-.36,.91-.71,1.82-1.05,2.74-.34,.91-.66,1.83-.98,2.76-.75-.5-1.5-1.01-2.24-1.53-.7-.5-1.4-1.01-2.1-1.51-.03-.02-.07-.05-.1-.08-2.9-2.15-5.7-4.45-8.37-6.87-.67-.61-1.33-1.22-1.98-1.84h-.01c-1.3-1.25-2.57-2.52-3.82-3.82h0c-.62-.66-1.23-1.32-1.84-1.99-2.42-2.67-4.72-5.47-6.87-8.37-.03-.03-.06-.07-.08-.1-.5-.7-1.01-1.4-1.51-2.1-.51-.74-1.02-1.48-1.53-2.23h0c.92-.33,1.84-.65,2.76-.99,.91-.33,1.82-.68,2.72-1.04,1.81-.71,3.59-1.47,5.35-2.27,1.76-.79,3.5-1.63,5.22-2.52,.82-.43,1.64-.86,2.46-1.3,.06-.03,.13-.06,.19-.11,.81-.44,1.62-.89,2.42-1.35,1.63-.93,3.24-1.9,4.83-2.92,.03-.02,.07-.04,.1-.07,.67-.43,1.34-.86,2-1.31,.09-.06,.18-.12,.27-.18,.65-.42,1.29-.86,1.93-1.32,.46-.31,.92-.64,1.37-.97,.98-.7,1.95-1.42,2.91-2.16,.48-.37,.96-.74,1.43-1.11,.08-.06,.16-.13,.24-.2,.59-.46,1.16-.92,1.74-1.4,.26-.21,.51-.42,.76-.64,1.01,1.19,2.05,2.36,3.11,3.51,0,.01,.02,.02,.02,.03,1.11,1.85,2.53,3.53,4.27,4.97,.11,.08,.21,.17,.31,.25,.67,.54,1.37,1.03,2.09,1.45l.02,.02c1.23,1.15,2.49,2.28,3.77,3.36Z"/>
      <path class="cls-1" d="M274.62,173.53c-4.23,.83-8.55,1.42-12.95,1.74-.66,.05-1.33,.1-2,.13-.34,.03-.68,.04-1.03,.05-.15,.02-.3,.02-.45,.02-.05,0-.09,.01-.14,.01-.47,.02-.95,.04-1.42,.05-.17,0-.34,.01-.51,.01-.81,.02-1.62,.03-2.43,.03s-1.66-.01-2.48-.03c-.12,0-.25,0-.37-.01-.1,0-.21,0-.31,0-.66-.02-1.32-.04-1.98-.07-.09,0-.19-.01-.28-.01-.81-.04-1.61-.09-2.41-.15-.09,0-.17-.01-.26-.02-.05,0-.11-.01-.16-.01-.79-.06-1.58-.13-2.37-.21-.87-.09-1.74-.18-2.61-.29-.87-.1-1.73-.22-2.59-.35-.86-.12-1.72-.26-2.58-.4-.85-.15-1.7-.3-2.54-.47,.37-.75,.73-1.51,1.07-2.28,.35-.76,.7-1.53,1.03-2.3,.34-.77,.67-1.55,.99-2.33,.32-.78,.64-1.56,.94-2.35,.31-.78,.61-1.58,.9-2.37,.28-.8,.57-1.6,.84-2.4,.56-1.6,1.07-3.22,1.54-4.86,.24-.82,.47-1.64,.69-2.46,.22-.83,.44-1.66,.64-2.49,.42-1.66,.8-3.34,1.13-5.03,.17-.84,.33-1.69,.49-2.54,.11-.66,.23-1.32,.34-1.99,.04-.23,.08-.46,.11-.69,.12-.76,.23-1.52,.34-2.28,3.26,.27,6.56,.4,9.89,.4s6.62-.13,9.88-.4c.11,.78,.22,1.55,.35,2.32,.26,1.69,.56,3.37,.9,5.03,0,.05,.01,.1,.02,.14,.16,.79,.33,1.57,.5,2.35,.01,.04,.02,.08,.03,.12,.19,.84,.39,1.68,.59,2.51,.41,1.67,.86,3.32,1.34,4.96,.47,1.64,.99,3.26,1.54,4.87,.81,2.42,1.7,4.8,2.68,7.14,.32,.78,.65,1.56,.99,2.33,.66,1.55,1.37,3.08,2.11,4.59Z"/>
      <path class="cls-1" d="M362.89,68.94v.06c-.02,.64-.04,1.29-.07,1.93-.01,.36-.03,.72-.05,1.08-.03,.66-.07,1.31-.11,1.97-.07,1-.16,2.02-.25,3.02-.01,.08-.01,.15-.02,.23-.02,.15-.03,.29-.05,.44,0,.04,0,.09-.02,.13-.02,.2-.04,.38-.06,.57-.02,.2-.04,.39-.07,.57-.01,.08-.02,.15-.02,.23-.05,.43-.1,.86-.17,1.28-.01,.07-.02,.15-.03,.22,0,.06,0,.11-.02,.17,0,.05-.01,.11-.02,.16-.01,.07-.02,.15-.03,.22,0,.03,0,.07,0,.1,0,.09-.01,.17-.03,.26-.08,.57-.17,1.14-.26,1.71-.01,.07-.03,.15-.04,.22-.01,.09-.02,.17-.04,.26-.04,.35-.1,.69-.17,1.04-.31,1.84-.67,3.67-1.08,5.48-.17,.76-.35,1.52-.54,2.28-.21,.86-.43,1.71-.67,2.56-.14,.51-.28,1.02-.43,1.53-.09,.32-.19,.65-.29,.98-.1,.33-.2,.66-.3,.98-.06,.2-.12,.4-.18,.6-.16,.52-.33,1.04-.51,1.56,0,.02-.01,.05-.02,.07-.15,.46-.31,.91-.47,1.36-.31,.89-.63,1.79-.97,2.67-.33,.89-.68,1.77-1.04,2.64-.16,.41-.33,.82-.51,1.23-.19,.46-.39,.92-.59,1.37-.18,.42-.37,.84-.56,1.25-.05,.12-.1,.23-.15,.35-.11,.24-.22,.48-.34,.72-.25,.54-.5,1.08-.77,1.61-.29,.59-.58,1.18-.88,1.76-.29,.59-.6,1.17-.91,1.75-.22,.42-.44,.83-.67,1.24-.57,1.04-1.15,2.07-1.76,3.08-.3,.51-.61,1.02-.92,1.52-.21,.35-.43,.7-.65,1.04-.28,.45-.57,.9-.87,1.35-.12,.21-.25,.41-.39,.6-.32,.5-.65,.99-.99,1.47-.26,.39-.53,.77-.8,1.16-.07,.1-.14,.2-.21,.3-.48,.68-.96,1.34-1.46,2-.07,.11-.14,.21-.22,.31-.14,.18-.27,.36-.41,.54-.36,.47-.72,.94-1.08,1.4-.34,.44-.69,.88-1.05,1.32-.21,.27-.43,.53-.65,.8-.29,.35-.57,.69-.86,1.03-.63,.75-1.26,1.48-1.91,2.2-.75,.84-1.51,1.66-2.28,2.48-2.13-3.17-4.1-6.46-5.9-9.86-2.42-4.57-4.52-9.34-6.28-14.27,18.01-12.01,32.63-28.7,42.11-48.33Z"/>
      <path class="cls-1" d="M324.13,149.74s0,.01-.01,.02c-.12,.1-.23,.2-.35,.29-.59,.5-1.18,.99-1.79,1.47-.54,.44-1.09,.87-1.64,1.29-.72,.57-1.45,1.11-2.18,1.65-.3,.22-.61,.44-.91,.66-.02,.02-.05,.03-.07,.05-.62,.44-1.23,.88-1.86,1.3-.49,.34-.98,.67-1.47,.99-.39,.27-.78,.52-1.17,.77-.69,.45-1.39,.89-2.1,1.32-.91,.56-1.84,1.11-2.77,1.64-.51,.3-1.03,.59-1.55,.87-.46,.26-.93,.51-1.4,.76-.57,.31-1.16,.61-1.74,.91-.53,.27-1.06,.54-1.6,.79-.36,.18-.72,.35-1.08,.52-.1,.05-.21,.1-.31,.15-.12,.07-.25,.12-.37,.18-.48,.23-.96,.45-1.44,.66-.02,.01-.04,.02-.06,.02-.53,.25-1.07,.48-1.61,.71-.55,.24-1.1,.47-1.65,.69-.56,.23-1.11,.46-1.67,.67-.97,.39-1.94,.75-2.93,1.1-.5,.18-1.01,.36-1.52,.53-.21,.07-.41,.14-.62,.21-.57,.19-1.15,.38-1.72,.56-.96-1.87-1.88-3.77-2.74-5.7-.22-.48-.43-.97-.63-1.46-.83-1.94-1.61-3.92-2.33-5.92-.35-1-.7-2.01-1.03-3.02-.17-.51-.33-1.02-.49-1.53-.16-.51-.31-1.02-.46-1.53-.31-1.03-.59-2.06-.86-3.1-.14-.51-.27-1.01-.39-1.53-.02-.05-.03-.11-.04-.16,0-.01-.01-.03-.01-.04-.12-.47-.23-.93-.33-1.4-.22-.9-.41-1.8-.59-2.7-.09-.45-.18-.9-.26-1.35-.01-.05-.02-.09-.03-.14-.05-.19-.08-.39-.11-.58-.2-1.06-.38-2.14-.54-3.21-.07-.43-.13-.86-.19-1.29-.01-.04-.01-.09-.02-.13-.01-.04-.01-.09-.01-.13,12.35-2.24,24.06-6.37,34.81-12.07,1.42,3.73,3.01,7.38,4.78,10.92,2.65,5.33,5.68,10.44,9.06,15.29Z"/>
      <path class="cls-1" d="M231.89,135.61s-.01,.08-.01,.12c-.01,.04-.02,.09-.02,.13-.06,.43-.12,.86-.19,1.29-.05,.36-.11,.72-.17,1.07-.2,1.25-.42,2.5-.67,3.74-.1,.53-.21,1.06-.33,1.59-.11,.53-.23,1.06-.35,1.58-.11,.48-.22,.96-.34,1.44-.14,.56-.28,1.13-.43,1.69-.27,1.04-.55,2.07-.86,3.1-.15,.51-.3,1.01-.46,1.52-.16,.51-.32,1.03-.49,1.54-.31,.97-.64,1.93-.98,2.88-.2,.55-.4,1.09-.61,1.64-.55,1.49-1.14,2.96-1.77,4.42-.2,.49-.41,.98-.63,1.46-.64,1.45-1.31,2.88-2.03,4.29-.23,.47-.47,.94-.71,1.41-.04-.01-.08-.02-.11-.03-.67-.22-1.34-.43-2-.66-1.63-.55-3.25-1.14-4.85-1.78-.77-.29-1.53-.6-2.28-.92-.8-.33-1.6-.68-2.4-1.04-.69-.31-1.38-.62-2.06-.95-.01,0-.02-.01-.03-.01-.73-.35-1.45-.7-2.16-1.06-.73-.36-1.45-.73-2.17-1.11-6.99-3.7-13.54-8.14-19.54-13.21,3.38-4.85,6.42-9.97,9.07-15.3,1.77-3.55,3.36-7.19,4.78-10.93,.92,.49,1.85,.97,2.78,1.43,9.97,4.97,20.72,8.6,32.02,10.66Z"/>
      <path class="cls-1" d="M186.6,117.27c-1.76,4.93-3.86,9.7-6.28,14.27-1.8,3.4-3.77,6.69-5.91,9.87-6.82-7.2-12.68-15.33-17.35-24.17-7.67-14.48-12.17-30.89-12.58-48.29,.2,.4,.39,.8,.59,1.2,9.5,19.1,23.89,35.36,41.53,47.12Z"/>
      <path class="cls-1" d="M302.45,80.63c0,10.81,1.42,21.3,4.09,31.28-9.85,5.47-20.63,9.46-32.05,11.67-.03-.98-.04-1.96-.04-2.95,0-1.52,.04-3.02,.1-4.52,.02-.49,.05-.97,.08-1.45,.03-.51,.06-1.02,.09-1.53,.04-.51,.07-1.01,.11-1.52,.05-.56,.1-1.11,.16-1.67,.05-.47,.09-.94,.14-1.4,.05-.47,.11-.94,.17-1.4,.07-.57,.14-1.13,.22-1.7,.06-.47,.13-.94,.2-1.4,.11-.74,.23-1.47,.36-2.2,.04-.26,.09-.53,.14-.79,.19-1.04,.4-2.08,.62-3.11,.08-.39,.16-.79,.24-1.19,.32-1.42,.66-2.83,1.04-4.22,.07-.28,.16-.55,.23-.83,.14-.51,.28-1.01,.42-1.52,.18-.61,.36-1.22,.55-1.82,.15-.48,.32-.96,.47-1.44,.29-.9,.59-1.79,.9-2.68,.19-.52,.38-1.03,.57-1.55,.17-.46,.34-.92,.52-1.37,.15-.39,.3-.78,.46-1.16,.2-.51,.41-1.02,.62-1.52,.36-.87,.74-1.72,1.12-2.58,.2-.45,.4-.91,.61-1.36,.48-1.04,.99-2.07,1.5-3.09,.1-.22,.21-.44,.32-.65,.08-.16,.17-.32,.26-.48,.58-1.14,1.18-2.26,1.81-3.36,.03-.06,.07-.12,.1-.18,.17-.28,.33-.56,.5-.85,.26-.44,.51-.88,.77-1.32,.28-.47,.56-.93,.85-1.39,.25-.41,.51-.82,.78-1.23,.49-.77,.98-1.53,1.49-2.28,.3-.45,.61-.9,.92-1.35,.25-.37,.51-.74,.77-1.1,.26-.37,.52-.73,.79-1.09,.31-.43,.62-.86,.94-1.28,.58-.77,1.17-1.52,1.77-2.28,.28-.35,.56-.71,.85-1.06,.41-.51,.83-1.01,1.25-1.52,.17-.21,.35-.42,.54-.63,.11-.12,.21-.25,.32-.37,.03-.04,.07-.08,.11-.12,.08-.1,.17-.2,.25-.29,.09-.1,.18-.2,.26-.3t.02-.02c.92-1.05,1.87-2.08,2.83-3.09,.16-.16,.31-.33,.48-.49,.16-.16,.32-.32,.48-.48,.33-.34,.67-.69,1-1.03s.68-.68,1.02-1.01c.38-.37,.77-.73,1.16-1.1,.14-.13,.28-.26,.42-.39-4.34,12.46-6.7,25.84-6.7,39.76Z"/>
      <path class="cls-1" d="M360.02,41.33c-6.12,26.11-21.65,48.63-42.79,63.8-1.82-7.88-2.78-16.08-2.78-24.5,0-19.87,5.33-38.5,14.63-54.57,0,0,0-.01,0-.01h.01s.03-.03,.05-.03c.47-.27,.94-.54,1.42-.8,.39-.22,.78-.45,1.18-.65,.2-.11,.39-.22,.59-.32,.2-.11,.4-.21,.59-.31,.48-.26,.96-.51,1.45-.76,.83-.42,1.67-.83,2.51-1.23,.48-.24,.96-.47,1.45-.69,4.04-1.85,8.21-3.46,12.5-4.82,.63,1.21,1.23,2.42,1.8,3.66,.41,.88,.81,1.76,1.2,2.65,.28,.63,.55,1.27,.81,1.91,.01,.03,.03,.07,.04,.1,0,.01,.01,.01,.01,.02,.16,.36,.31,.73,.46,1.11,0,.02,.01,.04,.02,.06,.17,.41,.33,.82,.48,1.23,.18,.44,.35,.88,.51,1.33,.19,.51,.37,1.02,.55,1.54,.13,.35,.25,.69,.37,1.04,.6,1.77,1.16,3.56,1.68,5.37,0,.03,0,.05,.02,.08,.27,.95,.52,1.9,.77,2.86,.1,.39,.19,.77,.28,1.16,.04,.13,.07,.25,.09,.38,.03,.13,.06,.26,.09,.39Z"/>
      <path class="cls-1" d="M232.92,120.63c0,.98-.01,1.96-.04,2.94-10.66-2.06-20.78-5.68-30.1-10.61-.66-.35-1.31-.7-1.95-1.06,2.67-9.98,4.09-20.46,4.09-31.27,0-13.93-2.36-27.32-6.71-39.79,.67,.61,1.33,1.25,1.98,1.89,.49,.48,.98,.96,1.45,1.45,.49,.5,.98,1.01,1.47,1.53,.49,.51,.97,1.03,1.44,1.56,.4,.43,.78,.86,1.16,1.29,.3,.33,.59,.67,.87,1.01,.27,.3,.52,.6,.77,.9,.46,.54,.91,1.09,1.35,1.64,2.68,3.31,5.16,6.78,7.43,10.39,.29,.44,.56,.88,.82,1.32,.21,.33,.42,.67,.61,1.01,.28,.46,.55,.92,.82,1.39,.28,.47,.55,.95,.82,1.44,1.01,1.82,1.98,3.68,2.89,5.57,.22,.44,.42,.88,.63,1.32,.2,.42,.39,.85,.58,1.28,.28,.61,.55,1.22,.81,1.83,2.28,5.3,4.15,10.82,5.57,16.51,.15,.58,.29,1.17,.42,1.76,.04,.15,.07,.29,.1,.44,.11,.47,.22,.94,.31,1.42,.15,.64,.28,1.29,.4,1.94,.08,.39,.16,.79,.23,1.19,.09,.52,.19,1.05,.27,1.58,.03,.17,.06,.35,.09,.53,.08,.5,.16,1,.23,1.51,.05,.26,.09,.53,.12,.8,.07,.46,.13,.92,.19,1.38,.06,.5,.12,1.01,.18,1.52,.02,.18,.04,.37,.06,.56,.05,.46,.1,.93,.14,1.4,.04,.36,.07,.71,.1,1.07,.05,.59,.1,1.18,.14,1.78,.01,.13,.02,.27,.02,.41,.06,.77,.1,1.54,.13,2.32,.07,1.61,.11,3.22,.11,4.85Z"/>
      <path class="cls-1" d="M192.92,80.63c0,8.42-.96,16.63-2.77,24.51-13.76-9.87-25.13-22.85-33.09-37.9-4.28-8.09-7.57-16.77-9.72-25.89v-.02c.31-1.34,.66-2.69,1.03-4.01,.29-1.09,.61-2.17,.95-3.25,.11-.35,.22-.7,.33-1.05,.37-1.18,.77-2.35,1.19-3.5,.14-.4,.29-.8,.44-1.2,.58-1.59,1.21-3.17,1.88-4.72,.18-.42,.36-.83,.54-1.25,.1-.22,.19-.44,.29-.66,.16-.33,.31-.66,.46-.99,.22-.48,.44-.96,.67-1.44,.23-.47,.46-.94,.7-1.41,.23-.47,.47-.94,.71-1.41,.69,.21,1.38,.44,2.06,.67,.69,.24,1.37,.47,2.05,.72,.42,.15,.83,.3,1.25,.46,.43,.16,.86,.32,1.28,.49,.63,.24,1.25,.49,1.87,.74,.54,.23,1.08,.45,1.62,.69,.47,.2,.94,.4,1.41,.62,.47,.2,.93,.41,1.39,.63,.85,.38,1.68,.78,2.51,1.2,.47,.23,.95,.47,1.42,.71,.14,.07,.28,.14,.41,.22,.49,.25,.98,.5,1.46,.77,.2,.1,.4,.2,.59,.32,.56,.3,1.11,.6,1.66,.92,.26,.14,.51,.29,.76,.44h0c9.31,16.07,14.64,34.72,14.64,54.59Z"/>
      <path class="cls-1" d="M345.07,328.41c-1.2,1.02-2.37,2.06-3.53,3.13,0,0-.01,0-.01,.01-1.85,1.1-3.53,2.52-4.98,4.27-.08,.1-.16,.2-.25,.31-.54,.67-1.03,1.37-1.46,2.09h0c-1.15,1.25-2.27,2.51-3.37,3.79-.31-.26-.62-.52-.93-.78-.74-.61-1.49-1.21-2.24-1.8-.76-.59-1.52-1.17-2.29-1.75-.77-.57-1.55-1.14-2.33-1.69-.78-.56-1.57-1.1-2.37-1.64-.8-.54-1.6-1.07-2.41-1.59-.81-.52-1.63-1.03-2.45-1.53s-1.65-.99-2.49-1.47c-.83-.48-1.68-.95-2.52-1.41-1.7-.93-3.41-1.81-5.16-2.65-3.49-1.69-7.07-3.21-10.74-4.56-.91-.34-1.83-.66-2.76-.98h0c.5-.76,1.01-1.5,1.53-2.24,.5-.7,1.01-1.4,1.51-2.1,.02-.03,.05-.07,.08-.1,.54-.72,1.09-1.44,1.64-2.15,.56-.72,1.12-1.42,1.7-2.12,1.14-1.4,2.32-2.76,3.53-4.1,.61-.67,1.23-1.33,1.85-1.98,.62-.66,1.25-1.3,1.89-1.94s1.28-1.26,1.93-1.89h.01c.65-.62,1.31-1.23,1.98-1.84s1.34-1.2,2.02-1.79c.69-.59,1.38-1.17,2.08-1.75,.69-.57,1.4-1.13,2.11-1.69,1.43-1.11,2.88-2.18,4.36-3.23,.74-.51,1.48-1.02,2.23-1.52,.65,1.9,1.34,3.77,2.09,5.63,.23,.62,.49,1.23,.74,1.84,0,.01,.01,.02,.02,.03,.25,.61,.51,1.22,.78,1.82,.26,.61,.53,1.21,.81,1.82,.55,1.2,1.12,2.4,1.71,3.59,1.69,3.4,3.54,6.72,5.54,9.93,.33,.54,.66,1.07,1.01,1.6,.33,.53,.68,1.06,1.03,1.58,.69,1.05,1.4,2.09,2.14,3.11,.36,.51,.72,1.02,1.1,1.53,.37,.51,.74,1.01,1.13,1.51,1.2,1.6,2.45,3.17,3.75,4.7Z"/>
      <path class="cls-1" d="M435.37,141.42c-19.62,9.49-36.31,24.12-48.33,42.12-4.93-1.76-9.69-3.86-14.26-6.28-3.4-1.8-6.69-3.77-9.86-5.9h0c.36-.36,.73-.7,1.1-1.04,.53-.49,1.07-.97,1.61-1.45,.04-.03,.07-.07,.11-.1,.49-.44,.98-.87,1.49-1.29,.12-.11,.25-.21,.37-.31,.34-.3,.68-.58,1.03-.87,.25-.2,.49-.41,.74-.6,.46-.37,.91-.74,1.38-1.1,.29-.23,.58-.46,.87-.67,.04-.03,.08-.06,.12-.09,.65-.51,1.3-1,1.97-1.48,.02-.01,.04-.03,.06-.05,.38-.27,.76-.55,1.15-.82,.2-.14,.4-.28,.61-.42,.27-.2,.54-.39,.82-.57,.03-.03,.07-.06,.11-.08,.68-.47,1.37-.93,2.07-1.38,.45-.3,.9-.59,1.35-.87,1.37-.87,2.76-1.7,4.17-2.5,.66-.38,1.32-.75,1.99-1.11,.67-.37,1.34-.72,2.02-1.07,.28-.15,.56-.29,.84-.43,.28-.14,.56-.28,.85-.42,.8-.4,1.6-.79,2.42-1.16,.34-.16,.68-.32,1.02-.47,.29-.13,.58-.26,.87-.39,.05-.02,.1-.05,.15-.07,.45-.2,.9-.39,1.36-.58,.41-.17,.82-.34,1.23-.51,.04-.02,.08-.04,.12-.05,.07-.03,.15-.06,.22-.09,.11-.04,.21-.09,.32-.13,.1-.04,.2-.08,.31-.12,.31-.13,.62-.25,.94-.37,.59-.24,1.19-.46,1.8-.68,.53-.2,1.06-.39,1.6-.57,.45-.16,.9-.32,1.36-.47,.02-.01,.05-.02,.07-.02,.52-.18,1.04-.35,1.56-.51l.6-.18c.32-.11,.65-.21,.98-.3,.33-.1,.66-.19,.98-.29,.51-.15,1.02-.29,1.53-.43,.85-.24,1.7-.46,2.56-.67,.76-.19,1.52-.37,2.28-.54,1.81-.41,3.64-.77,5.48-1.08,.17-.04,.35-.06,.52-.09,.17-.03,.35-.05,.52-.08,.09-.02,.17-.03,.26-.04,.07-.01,.15-.03,.22-.04,.57-.09,1.14-.18,1.71-.26,.08-.01,.17-.02,.26-.03,.06-.01,.11-.02,.17-.02,.06-.01,.11-.02,.17-.02,.52-.08,1.05-.15,1.58-.21h.04c.08-.01,.17-.02,.25-.03,.72-.09,1.44-.17,2.17-.24,.72-.07,1.45-.14,2.18-.19,.26-.02,.52-.04,.78-.06,.64-.04,1.29-.08,1.93-.11,.37-.02,.75-.04,1.12-.05,.64-.03,1.27-.05,1.91-.07h.07Z"/>
      <path class="cls-1" d="M380.8,194.03c-5.71,10.75-9.84,22.46-12.08,34.81-.04,0-.09,0-.13-.01-.04-.01-.09-.01-.13-.02-.43-.06-.86-.12-1.29-.19-1.07-.16-2.15-.34-3.21-.54-.2-.03-.39-.07-.58-.11-.05,0-.09-.02-.14-.03-.45-.08-.9-.17-1.35-.26-.9-.18-1.8-.37-2.7-.59-.47-.1-.93-.21-1.4-.33-.01,0-.03-.01-.04-.01-.05-.01-.11-.02-.16-.04-.51-.12-1.02-.25-1.53-.39-1.04-.27-2.07-.55-3.1-.86-.51-.15-1.02-.3-1.53-.46s-1.02-.32-1.53-.49c-1.01-.33-2.02-.68-3.02-1.03-2-.72-3.98-1.5-5.92-2.33-.49-.2-.98-.41-1.46-.63-1.93-.86-3.83-1.78-5.7-2.74,.18-.57,.37-1.15,.56-1.72,.07-.21,.14-.41,.21-.62,.17-.51,.35-1.02,.53-1.52,.35-.99,.71-1.96,1.1-2.93,.22-.56,.44-1.11,.67-1.67,.22-.55,.45-1.1,.69-1.65,.23-.55,.47-1.1,.72-1.64,.21-.49,.44-.98,.67-1.47,.06-.12,.11-.25,.18-.37,.04-.08,.07-.16,.11-.24,.44-.93,.89-1.84,1.35-2.75,.3-.59,.6-1.16,.91-1.74,.03-.06,.06-.11,.09-.17,.21-.41,.44-.83,.67-1.23,.28-.52,.57-1.04,.87-1.55,.59-1.03,1.2-2.05,1.82-3.06,.23-.38,.47-.76,.71-1.14,.02-.02,.03-.05,.05-.07,1.32-2.09,2.72-4.14,4.19-6.13,.31-.44,.64-.87,.97-1.3,.03-.04,.06-.08,.09-.12,.52-.69,1.04-1.36,1.58-2.03,.09-.12,.18-.23,.27-.34,.48-.6,.96-1.19,1.46-1.78,.1-.12,.2-.24,.3-.36,4.85,3.38,9.97,6.42,15.3,9.07,3.55,1.77,7.19,3.36,10.93,4.78Z"/>
      <path class="cls-1" d="M366.75,250.63c0,3.33,.13,6.63,.4,9.89h0c-.12,.02-.23,.04-.35,.06-.61,.08-1.21,.17-1.82,.26-.27,.04-.54,.08-.81,.13-.64,.11-1.29,.22-1.93,.33-.85,.15-1.7,.32-2.55,.49-.8,.16-1.59,.33-2.39,.5-.96,.22-1.93,.44-2.89,.68-1.59,.4-3.15,.82-4.71,1.28-1.64,.47-3.26,.99-4.87,1.54-.8,.27-1.61,.56-2.4,.85-.8,.28-1.59,.58-2.38,.89-.79,.3-1.58,.62-2.36,.94-.78,.32-1.56,.65-2.33,.99-1.54,.67-3.07,1.37-4.58,2.11-.66-3.39-1.17-6.84-1.51-10.33-.05-.52-.1-1.04-.14-1.56,0-.07-.01-.13-.01-.2-.01-.08-.02-.15-.02-.23-.02-.19-.04-.39-.05-.58-.01-.05-.01-.1-.02-.15-.06-.82-.11-1.64-.15-2.47,0-.09-.01-.19-.01-.28-.03-.66-.05-1.32-.07-1.98,0-.1-.01-.21-.01-.31-.01-.12-.01-.25-.01-.37-.02-.82-.03-1.65-.03-2.48s.01-1.62,.03-2.43c0-.17,.01-.34,.01-.51,.01-.47,.03-.95,.05-1.42,0-.05,.01-.09,.01-.14,0-.15,0-.3,.02-.45,.01-.35,.02-.69,.05-1.03,.03-.67,.08-1.34,.13-2,.32-4.4,.91-8.72,1.74-12.95,1.51,.74,3.03,1.44,4.58,2.11,.74,.33,1.5,.65,2.25,.96,.03,0,.05,.03,.08,.03,.76,.32,1.53,.63,2.3,.92,.03,.02,.07,.03,.1,.04,2.35,.91,4.74,1.75,7.15,2.51,.01,0,.02,0,.03,0,.8,.26,1.6,.5,2.41,.73,1.64,.49,3.29,.93,4.95,1.34,.83,.21,1.67,.41,2.51,.59,2.52,.57,5.06,1.06,7.63,1.45,.79,.13,1.58,.25,2.37,.36-.27,3.26-.4,6.55-.4,9.88Z"/>
      <path class="cls-1" d="M435.37,359.84c-.84-.02-1.68-.05-2.52-.09-.57-.02-1.13-.05-1.7-.09-.56-.03-1.13-.07-1.69-.12-.41-.03-.82-.06-1.23-.1-.71-.06-1.43-.13-2.14-.21-1.11-.13-2.22-.26-3.33-.42-1.13-.15-2.26-.33-3.38-.52-1.07-.19-2.13-.39-3.19-.61-.54-.11-1.08-.22-1.62-.34-.54-.11-1.08-.24-1.62-.37-.53-.12-1.07-.25-1.6-.39-1.07-.26-2.13-.55-3.18-.85-.53-.15-1.05-.3-1.58-.46-.52-.15-1.04-.31-1.56-.48-.52-.16-1.04-.33-1.56-.51-1.03-.35-2.06-.71-3.08-1.08-1.02-.38-2.03-.77-3.04-1.17-.17-.06-.34-.13-.5-.2-1.34-.54-2.66-1.12-3.97-1.72-.46-.2-.91-.41-1.36-.63-1.5-.7-2.98-1.45-4.44-2.22-1.36-.72-2.71-1.47-4.04-2.25-.45-.26-.89-.52-1.33-.79-.59-.35-1.17-.71-1.75-1.08-.49-.31-.98-.62-1.46-.94-.36-.22-.71-.45-1.05-.69-.49-.32-.97-.65-1.46-.99-.94-.65-1.88-1.32-2.81-2.01-.41-.3-.82-.61-1.23-.93-1.84-1.38-3.63-2.84-5.37-4.35-.45-.39-.9-.78-1.34-1.18-.45-.4-.9-.81-1.35-1.22-.33-.31-.66-.61-.98-.92,3.18-2.14,6.47-4.11,9.87-5.9,4.57-2.43,9.34-4.53,14.28-6.29,11.75,17.64,28.01,32.03,47.11,41.53,.4,.2,.8,.39,1.2,.59Z"/>
      <path class="cls-1" d="M380.8,307.23c-3.74,1.42-7.39,3.02-10.94,4.79-5.33,2.65-10.44,5.68-15.29,9.05-1.25-1.47-2.46-2.98-3.63-4.52-.07-.1-.15-.2-.22-.3-.46-.6-.9-1.2-1.34-1.81-.16-.21-.32-.44-.48-.66-.49-.69-.97-1.39-1.45-2.1-.51-.75-1.01-1.5-1.49-2.27-.08-.11-.15-.22-.22-.34-.46-.71-.9-1.43-1.34-2.16-.14-.23-.28-.46-.41-.69-.35-.58-.69-1.17-1.02-1.76-.13-.21-.25-.42-.36-.64-.43-.75-.84-1.51-1.25-2.28-.38-.72-.75-1.44-1.11-2.17-.36-.71-.71-1.43-1.06-2.16,0-.01-.01-.02-.01-.03-.33-.68-.64-1.37-.95-2.06-.05-.1-.09-.21-.13-.31-.31-.67-.6-1.36-.89-2.04-.01-.02-.02-.04-.02-.06-.32-.75-.62-1.51-.92-2.27-.3-.76-.59-1.53-.88-2.3-.27-.75-.54-1.5-.8-2.26,0-.03-.03-.07-.03-.1-.25-.72-.49-1.45-.73-2.19-.01-.03-.02-.07-.03-.11,.47-.24,.94-.48,1.41-.71,.41-.21,.83-.42,1.25-.62,.53-.25,1.06-.51,1.6-.75,.48-.23,.96-.44,1.44-.66,.48-.21,.97-.43,1.46-.63,.48-.21,.97-.42,1.46-.61,.49-.21,.98-.4,1.48-.59,.49-.2,.98-.39,1.48-.57,.33-.13,.67-.26,1.01-.38,.04-.02,.09-.03,.13-.05,.33-.12,.65-.23,.98-.34,.78-.28,1.56-.55,2.35-.8,.02-.01,.03-.02,.05-.02,.77-.25,1.55-.5,2.33-.73,.75-.23,1.51-.45,2.28-.66,.04-.01,.08-.02,.12-.03,.8-.23,1.61-.44,2.42-.64,.53-.13,1.07-.26,1.6-.39,.5-.12,1-.23,1.51-.34,.57-.13,1.15-.26,1.73-.37,.54-.11,1.08-.22,1.63-.32,.54-.1,1.09-.2,1.64-.3,.28-.05,.56-.09,.84-.14,.39-.06,.78-.12,1.17-.18,.43-.07,.86-.13,1.29-.19,.08-.01,.17-.02,.25-.03,2.06,11.3,5.69,22.05,10.66,32.02,.46,.93,.94,1.86,1.43,2.78Z"/>
      <path class="cls-1" d="M487.87,153.47c-1.28,4.09-2.81,8.07-4.57,11.93-.09,.23-.2,.45-.3,.68-.21,.45-.43,.9-.64,1.34-.4,.85-.81,1.69-1.23,2.52-.25,.49-.5,.97-.75,1.45-.42,.79-.85,1.58-1.29,2.36-.26,.48-.53,.95-.8,1.42-.01,.02-.03,.05-.04,.07-16.06,9.3-34.7,14.63-54.56,14.63-8.43,0-16.63-.96-24.51-2.78,15.17-21.14,37.69-36.67,63.8-42.8,.28,.06,.57,.13,.85,.19,.36,.09,.72,.18,1.08,.27,.96,.25,1.91,.5,2.86,.77,.94,.27,1.87,.55,2.79,.84,.01,0,.02,.01,.03,.01,.57,.17,1.15,.36,1.73,.56,.11,.04,.21,.07,.32,.11,.2,.06,.39,.12,.59,.19,.19,.06,.38,.12,.56,.2,.11,.04,.23,.08,.34,.12,.04,.01,.08,.03,.12,.04,.63,.22,1.27,.45,1.9,.69,.91,.34,1.82,.69,2.72,1.06,.91,.35,1.8,.73,2.69,1.13,.89,.39,1.77,.79,2.65,1.2,1.24,.57,2.46,1.17,3.66,1.8Z"/>
      <path class="cls-1" d="M463.43,195.18c-.12,.14-.25,.27-.38,.41-.36,.39-.73,.78-1.1,1.16-.33,.34-.67,.69-1.01,1.02-.34,.33-.68,.67-1.02,1-.16,.17-.33,.33-.49,.48-.16,.17-.33,.32-.49,.48-.39,.38-.78,.75-1.19,1.12-.08,.07-.16,.15-.24,.22-.55,.5-1.1,1-1.66,1.5-.53,.47-1.07,.93-1.61,1.39-.54,.46-1.08,.91-1.63,1.35-.35,.29-.71,.57-1.07,.85-.7,.56-1.41,1.11-2.12,1.66-.08,.07-.17,.14-.27,.2-.39,.29-.78,.58-1.17,.85-.71,.53-1.44,1.04-2.16,1.55-.01,.02-.03,.03-.04,.02-.44,.31-.89,.61-1.33,.91-.76,.51-1.51,1-2.28,1.49-.43,.29-.87,.56-1.31,.83-.44,.27-.87,.53-1.31,.8-.44,.26-.89,.51-1.33,.77-.34,.2-.68,.4-1.03,.6-.62,.35-1.24,.7-1.86,1.03-.63,.34-1.25,.67-1.88,.99-.03,.02-.06,.03-.09,.05-.22,.11-.43,.22-.65,.32-1.02,.51-2.05,1.02-3.09,1.5-.45,.21-.91,.41-1.37,.61-.85,.38-1.71,.76-2.57,1.12-.51,.21-1.01,.42-1.52,.62-.38,.16-.77,.31-1.16,.46-.45,.18-.91,.35-1.37,.52-.52,.19-1.03,.38-1.55,.56-.89,.32-1.78,.62-2.68,.91-.48,.15-.96,.32-1.44,.47-.56,.17-1.11,.34-1.67,.5-.55,.16-1.11,.32-1.67,.47-.28,.07-.55,.16-.83,.23-.7,.19-1.4,.37-2.1,.54-.7,.18-1.41,.34-2.12,.5-.4,.08-.8,.16-1.19,.24-1.04,.22-2.07,.43-3.12,.62-.52,.1-1.05,.18-1.58,.27-.46,.08-.93,.15-1.4,.23-.46,.07-.93,.14-1.4,.2-.56,.09-1.13,.16-1.7,.23-.93,.11-1.86,.21-2.8,.3-.55,.06-1.11,.11-1.67,.16-.51,.05-1.02,.09-1.52,.11-.51,.03-1.01,.06-1.52,.09-.49,.04-.97,.06-1.46,.08-1.5,.06-3,.1-4.52,.1-.3,0-.59,0-.89-.01l-.43-3.31c-.41,.41-.82,.84-1.22,1.28,2.27-10.68,6.11-20.77,11.26-30.05,9.98,2.67,20.47,4.09,31.28,4.09,13.91,0,27.29-2.35,39.74-6.69Z"/>
      <path class="cls-1" d="M463.45,306.1c-12.46-4.34-25.84-6.7-39.76-6.7-10.81,0-21.29,1.42-31.27,4.09-.36-.64-.71-1.29-1.06-1.95-4.66-8.8-8.14-18.3-10.25-28.31,.21,.26,.44,.51,.68,.76l.46-2.57c-.43,0-.87,.01-1.31,.02,.34-.01,.68-.02,1.03-.03,.57,0,1.15,0,1.72,0,.81,0,1.62,0,2.43,.03,.5,.01,.99,.02,1.48,.04h.1c.29,.01,.56,.02,.84,.04,.16,0,.31,.01,.47,.03,.07,0,.13,0,.2,.01h.03c.14,.01,.28,.02,.42,.03,.51,.02,1.02,.05,1.52,.08,.75,.05,1.5,.11,2.24,.18,.32,.03,.64,.06,.96,.09,.94,.08,1.87,.18,2.8,.31,.56,.07,1.13,.14,1.69,.22,.94,.13,1.87,.28,2.8,.43,.53,.09,1.06,.18,1.59,.27,.52,.1,1.04,.2,1.56,.3,.52,.1,1.04,.21,1.55,.32,.2,.04,.4,.08,.6,.12,.2,.04,.39,.08,.59,.13,1.31,.29,2.62,.61,3.91,.95,.14,.04,.29,.07,.43,.11,.24,.07,.48,.14,.72,.21,.56,.16,1.12,.31,1.67,.47,.56,.17,1.11,.33,1.66,.5,.49,.15,.97,.31,1.45,.47,.44,.14,.89,.29,1.34,.44s.89,.3,1.33,.46c.52,.18,1.04,.37,1.55,.57,.42,.15,.85,.31,1.27,.48,.42,.15,.84,.32,1.26,.49,.52,.2,1.02,.41,1.53,.62,.43,.18,.86,.36,1.29,.55s.85,.38,1.28,.57c.46,.21,.91,.41,1.36,.62,1.04,.48,2.07,.98,3.09,1.5,.22,.11,.44,.21,.66,.32,.03,.02,.06,.03,.09,.05,1.26,.64,2.51,1.32,3.74,2.01,.35,.2,.69,.41,1.03,.61,.89,.51,1.77,1.03,2.64,1.56,.44,.28,.87,.56,1.31,.83,.76,.49,1.52,.99,2.28,1.49,.45,.31,.9,.61,1.35,.92,.73,.51,1.46,1.03,2.18,1.56,.43,.32,.86,.63,1.29,.95,.76,.58,1.52,1.17,2.27,1.76,.18,.14,.36,.28,.54,.42,.69,.55,1.37,1.11,2.05,1.68,1.15,.97,2.28,1.97,3.39,2.99,.47,.45,.95,.89,1.42,1.34,.33,.32,.65,.64,.98,.96,.68,.67,1.36,1.34,2.03,2.03,.37,.38,.74,.77,1.1,1.15,.13,.14,.27,.29,.4,.43Z"/>
      <path class="cls-1" d="M487.88,347.79c-2.06,1.07-4.17,2.07-6.31,2.99-.89,.39-1.79,.77-2.69,1.14-.9,.36-1.81,.72-2.73,1.06-.91,.34-1.83,.67-2.75,.99-.85,.29-1.7,.58-2.56,.85-.86,.27-1.72,.53-2.59,.78-.08,.02-.17,.05-.25,.07-.19,.06-.39,.12-.58,.17-.79,.22-1.59,.43-2.38,.64-.07,.02-.13,.03-.2,.05-.61,.16-1.23,.31-1.85,.45h-.02c-9.12-2.15-17.8-5.44-25.89-9.72-15.05-7.95-28.03-19.33-37.89-33.08,7.88-1.82,16.08-2.78,24.5-2.78,19.86,0,38.5,5.33,54.56,14.63h.01s.02,.04,.03,.06c.28,.47,.54,.95,.81,1.42,.43,.78,.86,1.57,1.28,2.36,.13,.24,.26,.49,.38,.73,.12,.24,.25,.48,.37,.73,.42,.82,.83,1.66,1.23,2.5,.22,.45,.44,.9,.65,1.36,1.88,4.07,3.51,8.28,4.87,12.6Z"/>
      <path class="cls-1" d="M214.6,320.17s-.09,.02-.13,.04c-.88,.3-1.76,.61-2.62,.94-.89,.32-1.78,.66-2.65,1.01-.08,.02-.16,.05-.23,.09-.82,.32-1.63,.65-2.43,1-.08,.02-.16,.06-.24,.1-.85,.36-1.69,.73-2.53,1.11-.88,.4-1.75,.8-2.62,1.23-2.61,1.25-5.17,2.6-7.67,4.05-1.67,.95-3.32,1.95-4.93,2.99-1.62,1.03-3.21,2.09-4.77,3.21-2.34,1.65-4.62,3.39-6.84,5.22-.35,.27-.69,.55-1.03,.85-1.03-1.2-2.07-2.38-3.15-3.54,0,0-.01-.02-.02-.03-1.09-1.83-2.51-3.5-4.24-4.94-.11-.08-.21-.17-.31-.25-.67-.54-1.36-1.03-2.08-1.45h-.01c-1.24-1.16-2.51-2.28-3.79-3.38,.23-.27,.45-.55,.67-.82,.01-.02,.03-.03,.04-.05,.04-.03,.07-.07,.09-.11,.6-.73,1.19-1.46,1.77-2.21,.59-.75,1.18-1.51,1.75-2.28,.57-.77,1.14-1.55,1.69-2.33,.54-.76,1.07-1.52,1.59-2.29,.06-.08,.11-.16,.16-.25,.03-.04,.05-.07,.07-.11,.43-.63,.85-1.27,1.26-1.9,.15-.23,.3-.46,.44-.69,.29-.46,.58-.92,.86-1.38,.01-.02,.03-.04,.04-.06,.21-.34,.41-.67,.62-1.02,.01-.02,.03-.05,.04-.07,.41-.68,.82-1.37,1.21-2.06,.43-.75,.85-1.5,1.26-2.26,.15-.28,.3-.55,.44-.83,.04-.07,.08-.15,.12-.22,.31-.55,.6-1.11,.88-1.67,.39-.76,.77-1.52,1.15-2.29,.05-.1,.1-.21,.15-.31,.12-.26,.24-.51,.36-.77,.03-.06,.05-.12,.08-.18,.03-.06,.06-.12,.09-.18,.16-.33,.32-.67,.47-1,.17-.36,.34-.72,.49-1.09,.22-.49,.44-.97,.64-1.46,.03-.08,.07-.16,.1-.24,.11-.23,.21-.46,.3-.69,.34-.79,.66-1.59,.98-2.39,.36-.91,.71-1.82,1.05-2.74,.32-.87,.63-1.75,.94-2.63,.01-.04,.03-.09,.04-.13,.75,.5,1.5,1.01,2.24,1.53,.74,.52,1.47,1.05,2.2,1.59,.73,.54,1.45,1.09,2.16,1.64,.46,.36,.92,.73,1.38,1.1,.1,.09,.21,.17,.31,.26,.24,.18,.47,.37,.7,.57,.05,.04,.11,.08,.16,.13,.55,.45,1.09,.91,1.64,1.38,.68,.59,1.35,1.18,2.02,1.79,.67,.61,1.33,1.22,1.98,1.84,.66,.62,1.3,1.25,1.94,1.89s1.22,1.23,1.81,1.86c.01,.01,.03,.03,.04,.04s.01,.01,.02,.02h.01c.63,.66,1.24,1.33,1.85,2,.61,.67,1.2,1.35,1.79,2.03,2.95,3.42,5.69,7.02,8.2,10.79Z"/>
      <path class="cls-1" d="M173.57,283.48s-.02,.07-.03,.1c-.21,.66-.42,1.31-.65,1.96-.23,.69-.46,1.37-.71,2.05-.21,.58-.42,1.15-.64,1.73-.19,.51-.39,1.01-.59,1.52-.03,.06-.05,.13-.08,.19-.08,.22-.17,.44-.26,.66-.18,.45-.37,.9-.57,1.35-.01,.04-.03,.08-.05,.12-.11,.25-.21,.51-.32,.76-.2,.46-.4,.91-.6,1.36-.08,.17-.15,.33-.23,.5-.25,.56-.5,1.1-.77,1.65-.03,.08-.07,.16-.11,.23-.02,.04-.03,.07-.05,.11-.27,.56-.55,1.13-.83,1.69-.32,.64-.65,1.28-.98,1.91-.33,.63-.67,1.26-1.02,1.88-.33,.61-.67,1.22-1.02,1.82-.03,.06-.07,.12-.1,.17-.33,.58-.67,1.15-1.02,1.72-.36,.61-.73,1.21-1.12,1.81-.82,1.31-1.67,2.59-2.55,3.86-.31,.46-.64,.92-.97,1.37-.07,.1-.14,.21-.22,.31-.35,.5-.71,.99-1.08,1.48h0c-.43,.58-.85,1.14-1.29,1.7-.61,.79-1.23,1.56-1.86,2.33-.35,.43-.7,.85-1.05,1.26-4.85-3.38-9.96-6.42-15.3-9.07-3.55-1.77-7.2-3.36-10.93-4.78,4.5-8.48,8.02-17.56,10.41-27.09,.64-2.54,1.2-5.12,1.67-7.72,.04,0,.08,0,.13,.01,.04,.01,.08,.01,.13,.02,.43,.06,.86,.12,1.29,.19,.54,.08,1.08,.17,1.61,.26,.54,.09,1.07,.18,1.6,.28,.24,.04,.48,.08,.72,.14,.45,.08,.9,.17,1.35,.26,.9,.18,1.8,.37,2.7,.59,.48,.11,.96,.22,1.44,.34,.57,.13,1.13,.27,1.69,.43,1.04,.27,2.07,.55,3.1,.86,.51,.15,1.02,.3,1.53,.46,1.53,.48,3.05,.99,4.55,1.52,1,.36,1.99,.73,2.98,1.12,.99,.39,1.97,.8,2.94,1.21,.48,.2,.97,.41,1.45,.63,1.93,.86,3.84,1.78,5.71,2.74Z"/>
      <path class="cls-1" d="M144.45,329.9c-.05,.06-.1,.11-.16,.16-.51,.49-1.03,.97-1.56,1.44-.37,.35-.74,.68-1.12,1-.04,.05-.09,.09-.13,.12-.38,.34-.76,.67-1.14,.99-.22,.19-.44,.38-.66,.57-.06,.04-.11,.09-.17,.13-.08,.07-.16,.14-.24,.2-.45,.39-.91,.77-1.38,1.14-1.09,.89-2.2,1.74-3.32,2.58-1.15,.86-2.31,1.7-3.5,2.51-.59,.41-1.18,.8-1.77,1.19-.57,.38-1.15,.75-1.73,1.11-.65,.42-1.31,.83-1.98,1.23-.58,.35-1.16,.69-1.74,1.02-.5,.3-1.01,.59-1.52,.87-.19,.11-.39,.22-.59,.32-.08,.05-.16,.09-.25,.14-.46,.25-.92,.5-1.39,.74-.63,.33-1.26,.66-1.9,.98-.51,.26-1.02,.51-1.54,.76-.04,.02-.09,.04-.13,.06-.23,.11-.45,.22-.67,.32-.51,.25-1.02,.48-1.54,.71-.65,.3-1.31,.59-1.97,.87-.66,.28-1.32,.56-1.99,.83-.58,.23-1.16,.47-1.75,.69-.29,.12-.59,.23-.89,.34-.3,.12-.6,.22-.89,.33-.35,.13-.7,.26-1.06,.38-.07,.03-.14,.06-.21,.08-.42,.15-.85,.3-1.28,.44-.56,.19-1.13,.38-1.69,.56-.03,0-.06,.02-.09,.03-.78,.25-1.57,.49-2.36,.72-.51,.15-1.02,.3-1.53,.44-.06,.02-.11,.03-.17,.05-.38,.1-.76,.2-1.14,.3-.46,.12-.92,.24-1.38,.36-.71,.18-1.42,.35-2.13,.51-.59,.14-1.18,.27-1.78,.39-.6,.13-1.2,.25-1.81,.37-.36,.07-.73,.14-1.1,.21-.46,.08-.94,.17-1.41,.24-.06,.01-.11,.02-.17,.03-.17,.03-.35,.06-.53,.09-.5,.08-1,.16-1.51,.23-.26,.05-.53,.09-.8,.12-.46,.07-.92,.13-1.38,.19-.5,.06-1.01,.12-1.52,.18-.18,.02-.37,.04-.56,.06-.02,0-.04,0-.06,.01-.44,.04-.89,.09-1.34,.13-.36,.04-.71,.07-1.07,.1-.38,.03-.76,.06-1.15,.09-.21,.02-.42,.04-.63,.05-.13,.01-.27,.02-.41,.02-.23,.02-.46,.03-.69,.05-.4,.02-.81,.05-1.22,.06-.13,.01-.27,.01-.41,.02-.25,.01-.49,.02-.74,.03l-.78,.03h-.15c-.17,0-.35,.01-.53,.01,19.6-9.49,36.28-24.11,48.28-42.11,4.93,1.76,9.69,3.86,14.27,6.28,3.4,1.8,6.69,3.76,9.86,5.9Z"/>
      <path class="cls-1" d="M144.45,171.36c-3.17,2.14-6.46,4.1-9.86,5.9-4.58,2.42-9.35,4.53-14.28,6.29-11.98-18-28.66-32.62-48.27-42.12,.02-.01,.04-.01,.06-.01,.04,0,.07,0,.1,.01,.82,.02,1.63,.05,2.44,.09,.3,0,.6,.02,.9,.04,.1,.01,.2,.01,.3,.02,.53,.03,1.05,.07,1.57,.11,.17,0,.33,.02,.49,.03h.04c.87,.07,1.73,.15,2.6,.24,.79,.08,1.57,.17,2.36,.26,.1,.01,.21,.03,.31,.04,.5,.07,1,.13,1.5,.21,.26,.03,.51,.07,.76,.11,.42,.05,.84,.12,1.25,.19,.43,.06,.84,.13,1.26,.21,.06,.01,.13,.02,.19,.03,.26,.04,.52,.09,.77,.14,.28,.05,.55,.09,.82,.15,.28,.05,.56,.1,.83,.16,.35,.07,.7,.14,1.05,.21,.72,.15,1.44,.3,2.15,.47,.59,.13,1.19,.28,1.78,.43,.16,.03,.31,.07,.46,.11,.46,.11,.92,.23,1.37,.35,.08,.02,.15,.04,.23,.06,.33,.09,.67,.18,1,.28,.42,.11,.83,.23,1.25,.35,.09,.03,.17,.05,.26,.08,.5,.14,1,.29,1.49,.45,.09,.03,.19,.06,.28,.09,.18,.05,.37,.11,.55,.17,.38,.12,.75,.24,1.12,.37,.05,.02,.1,.03,.15,.05,.7,.22,1.39,.46,2.07,.71,.55,.19,1.09,.39,1.63,.59,.5,.18,1,.37,1.49,.57,.05,.02,.09,.04,.14,.05,.3,.12,.6,.23,.9,.36,.02,0,.05,.02,.07,.03,.56,.22,1.12,.45,1.67,.69,.35,.14,.7,.29,1.05,.45,.14,.06,.29,.12,.43,.19,.38,.16,.76,.33,1.14,.5s.76,.35,1.14,.53c.39,.17,.78,.35,1.16,.54,.47,.23,.94,.46,1.4,.69,.19,.1,.38,.19,.56,.29,.06,.03,.11,.05,.17,.09,.37,.18,.74,.37,1.1,.56,.04,.02,.07,.04,.11,.06,.1,.04,.2,.1,.3,.16,.51,.26,1.02,.53,1.53,.81,.27,.15,.53,.29,.79,.45,.43,.23,.85,.47,1.27,.72,1.24,.71,2.46,1.45,3.66,2.21,.57,.35,1.13,.71,1.68,1.08,.09,.05,.17,.11,.25,.16,.53,.35,1.05,.7,1.57,1.06,.09,.06,.18,.12,.27,.19,.51,.35,1.02,.7,1.53,1.07,.58,.41,1.15,.83,1.72,1.26,.57,.42,1.13,.85,1.69,1.29,.56,.43,1.12,.87,1.67,1.32,.55,.44,1.1,.89,1.64,1.35,.67,.56,1.34,1.13,1.99,1.71,.94,.82,1.86,1.66,2.77,2.53,.06,.05,.11,.1,.16,.16Z"/>
      <path class="cls-1" d="M173.57,217.78c-1.87,.96-3.78,1.88-5.71,2.74-.48,.22-.96,.43-1.45,.63-1.95,.83-3.92,1.61-5.92,2.33-1,.35-2.01,.7-3.02,1.03-.51,.17-1.02,.33-1.53,.49-2.04,.63-4.1,1.21-6.19,1.72-.52,.13-1.05,.26-1.57,.37-1.05,.25-2.11,.47-3.17,.68-.52,.11-1.04,.21-1.57,.31-.63,.11-1.27,.22-1.9,.32-.45,.08-.89,.15-1.34,.21-.52,.08-1.03,.16-1.55,.23-2.24-12.35-6.37-24.06-12.08-34.81,3.74-1.42,7.39-3.02,10.94-4.79,5.33-2.65,10.44-5.68,15.29-9.05,.11,.12,.21,.23,.3,.34,.39,.46,.78,.93,1.15,1.4,.62,.76,1.22,1.52,1.8,2.28,.32,.41,.63,.83,.95,1.26,.42,.56,.84,1.14,1.25,1.71,.42,.58,.83,1.16,1.23,1.75,.4,.58,.8,1.17,1.19,1.77,.39,.59,.77,1.19,1.15,1.79,.76,1.2,1.5,2.42,2.21,3.65,.68,1.19,1.35,2.38,1.99,3.59,0,.02,0,.03,.02,.05,.05,.09,.1,.17,.14,.26,.29,.54,.57,1.09,.84,1.64,.06,.11,.12,.23,.17,.34,.28,.56,.56,1.13,.83,1.7,.31,.65,.62,1.3,.91,1.95,.23,.5,.45,1,.67,1.51,.09,.19,.17,.39,.25,.59,.02,.05,.05,.1,.07,.15,.14,.32,.27,.65,.4,.97,.02,.05,.04,.1,.06,.15,.09,.2,.18,.41,.26,.62,.18,.44,.36,.88,.53,1.32,.21,.52,.4,1.04,.59,1.56,.13,.33,.25,.66,.37,.99,.02,.05,.04,.1,.05,.14,.03,.08,.06,.16,.09,.25,0,.03,0,.05,.02,.08,.45,1.24,.87,2.48,1.27,3.74,.01,.02,.01,.03,.01,.04Z"/>
      <path class="cls-1" d="M108.19,314.17c-15.17,21.14-37.68,36.67-63.78,42.81h-.02c-.2-.04-.41-.09-.61-.15-.21-.05-.42-.1-.62-.15-.03-.01-.05-.01-.08-.02-.11-.02-.22-.05-.33-.08-.25-.07-.51-.13-.76-.19-.05-.02-.09-.03-.14-.04-.67-.17-1.33-.35-1.99-.54-.13-.03-.27-.07-.4-.11-.9-.26-1.8-.53-2.69-.81-.94-.29-1.87-.6-2.79-.92-.93-.32-1.85-.65-2.76-.99-.92-.34-1.83-.69-2.73-1.06-1.8-.74-3.58-1.52-5.34-2.34-1.23-.57-2.45-1.17-3.65-1.79,1.29-4.09,2.81-8.07,4.57-11.93,.29-.69,.6-1.36,.94-2.03,.4-.84,.81-1.68,1.23-2.51,.25-.49,.49-.97,.76-1.45,.16-.3,.32-.61,.48-.91,.22-.43,.46-.86,.7-1.28,.29-.56,.61-1.11,.93-1.65h.01c16.06-9.31,34.7-14.64,54.56-14.64,8.42,0,16.63,.96,24.51,2.78Z"/>
      <path class="cls-1" d="M126.63,271.43c-.2,1.06-.42,2.11-.66,3.16-2.3,10.24-6.04,19.95-11.01,28.89-9.98-2.67-20.47-4.09-31.28-4.09-13.91,0-27.29,2.35-39.74,6.69,.12-.14,.25-.27,.38-.41,.37-.39,.73-.78,1.1-1.16,.67-.68,1.35-1.36,2.03-2.03,.16-.17,.33-.33,.49-.48,.16-.16,.32-.32,.49-.47,.47-.46,.94-.9,1.43-1.34,.55-.5,1.1-1,1.66-1.5,0,0,0-.01,.02-.01,.36-.32,.72-.63,1.08-.94,.88-.76,1.77-1.5,2.68-2.22,.18-.14,.36-.28,.53-.42,.7-.56,1.41-1.11,2.12-1.66,.08-.07,.17-.14,.27-.2,.39-.29,.78-.57,1.17-.85,.72-.53,1.45-1.05,2.18-1.56,.45-.31,.9-.62,1.35-.93,.76-.5,1.51-.99,2.28-1.48,.44-.28,.87-.56,1.31-.83,.43-.28,.87-.54,1.31-.8s.88-.51,1.33-.77c.34-.2,.68-.4,1.03-.6,1.26-.72,2.54-1.41,3.83-2.07,.21-.1,.43-.2,.65-.31,1.02-.52,2.05-1.02,3.09-1.51,.46-.21,.91-.41,1.37-.61,.85-.38,1.7-.76,2.57-1.12,.5-.21,1.01-.42,1.53-.62,.83-.34,1.68-.66,2.52-.98,.52-.19,1.03-.38,1.55-.56,.89-.32,1.78-.62,2.68-.91,.48-.16,.96-.32,1.44-.47,.55-.18,1.11-.35,1.67-.5,.56-.16,1.12-.32,1.68-.47,.27-.07,.54-.16,.82-.23,1.39-.38,2.8-.72,4.22-1.04,.4-.08,.8-.16,1.19-.24,1.04-.22,2.07-.43,3.12-.62,.52-.1,1.05-.18,1.58-.27,.93-.16,1.86-.3,2.8-.43,.57-.08,1.13-.15,1.7-.22,.93-.12,1.86-.22,2.8-.31,.56-.06,1.11-.11,1.67-.16,1.01-.08,2.03-.14,3.04-.2,.49-.03,.97-.06,1.46-.08,1.5-.07,3.01-.1,4.52-.1,.99,0,1.97,.01,2.95,.04Z"/>
      <path class="cls-1" d="M126.46,228.93l-.55,.9c-.18,.01-.36,.02-.54,.02-.56,.01-1.12,.01-1.68,.01-1.63,0-3.24-.04-4.85-.11-.14-.01-.28-.01-.41-.02-.41-.01-.82-.04-1.22-.06-.23-.02-.46-.03-.69-.05-.14,0-.28-.01-.41-.02-.21,0-.42-.03-.63-.05-.39-.03-.77-.06-1.15-.09-.36-.03-.71-.06-1.07-.1-.45-.04-.9-.09-1.34-.13-.02-.01-.04-.01-.06-.01-.19-.02-.38-.04-.56-.06-.51-.06-1.02-.12-1.52-.18-.46-.06-.92-.12-1.38-.19-.27-.03-.54-.07-.8-.12-.51-.07-1.01-.15-1.51-.23-.18-.03-.36-.06-.53-.09-.06,0-.11-.02-.17-.03-.47-.07-.95-.16-1.41-.24-.37-.07-.74-.14-1.1-.21-.61-.12-1.21-.24-1.81-.37-.6-.12-1.19-.25-1.78-.39-.71-.16-1.42-.33-2.13-.51-5.67-1.42-11.16-3.28-16.44-5.55-.61-.26-1.22-.53-1.83-.81-.43-.19-.86-.38-1.28-.58-.11-.05-.22-.1-.33-.16-.4-.18-.79-.37-1.19-.57-.02,0-.04-.01-.06-.03-.67-.32-1.35-.66-2.01-1-.6-.31-1.2-.62-1.79-.94-.53-.28-1.05-.56-1.56-.85-.4-.22-.79-.44-1.17-.66-.13-.07-.26-.15-.39-.22-.51-.3-1.02-.59-1.51-.9-.18-.11-.36-.22-.54-.33-.47-.28-.94-.57-1.41-.86-1.13-.72-2.26-1.45-3.36-2.21-.44-.29-.87-.59-1.3-.9-.71-.5-1.42-1.01-2.12-1.53-.55-.4-1.09-.81-1.62-1.23-.32-.24-.64-.49-.95-.74-.11-.08-.22-.16-.33-.25-.04-.03-.07-.06-.11-.09-.04-.03-.07-.06-.11-.09-.39-.32-.79-.64-1.18-.96-.62-.5-1.23-1.01-1.84-1.53-.4-.33-.8-.68-1.19-1.03-.64-.56-1.27-1.13-1.89-1.7-.2-.19-.4-.37-.6-.56-.61-.57-1.22-1.15-1.81-1.73-.07-.07-.13-.14-.2-.2-.41-.41-.83-.82-1.23-1.24-.66-.66-1.3-1.33-1.92-2.01,12.47,4.36,25.87,6.72,39.8,6.72,10.81,0,21.29-1.42,31.27-4.09,5.33,9.6,9.25,20.08,11.5,31.16Z"/>
      <path class="cls-1" d="M108.19,187.09c-7.88,1.81-16.08,2.77-24.5,2.77-19.88,0-38.53-5.34-54.6-14.65-.42-.71-.83-1.44-1.22-2.17-.25-.43-.48-.86-.71-1.3-.11-.2-.22-.4-.32-.61-.29-.55-.58-1.11-.86-1.68-.33-.64-.64-1.28-.94-1.92-.31-.65-.62-1.3-.91-1.95-.3-.65-.59-1.3-.87-1.96v-.02c-.03-.06-.06-.13-.08-.19-.02-.05-.05-.11-.07-.16h0c-.03-.08-.06-.15-.09-.22-.01-.02-.02-.05-.03-.07-.19-.45-.38-.89-.56-1.34-.27-.64-.52-1.28-.77-1.93-.04-.09-.07-.19-.11-.3-.23-.6-.46-1.2-.67-1.81-.48-1.32-.93-2.66-1.36-4-.01-.03-.02-.07-.03-.1h0c.81-.43,1.64-.84,2.47-1.24,.53-.26,1.07-.51,1.61-.76,.35-.16,.69-.32,1.04-.48,.35-.16,.7-.32,1.05-.47,.53-.23,1.06-.46,1.6-.68,.38-.16,.76-.32,1.14-.47,.5-.21,1-.41,1.51-.6,.49-.2,.98-.38,1.48-.56,.77-.29,1.54-.57,2.32-.84,.39-.14,.78-.27,1.17-.4,.52-.17,1.04-.34,1.56-.51,.74-.23,1.48-.46,2.22-.68,.74-.21,1.49-.42,2.24-.63,.7-.19,1.42-.37,2.12-.55,.02,0,.03-.01,.05-.01,.44-.11,.89-.22,1.33-.32h.01c26.1,6.14,48.62,21.67,63.78,42.81Z"/>
      <path class="cls-1" d="M362.89,432.22v.04s-.01,.01-.01,.02c-9.49-19.61-24.11-36.29-42.1-48.28,1.76-4.93,3.86-9.7,6.28-14.28,1.8-3.4,3.77-6.69,5.9-9.86,.06,.05,.11,.11,.15,.16,.87,.91,1.71,1.83,2.53,2.77,.16,.18,.33,.37,.48,.55,.04,.05,.08,.09,.13,.14,.36,.43,.73,.86,1.1,1.3,.46,.54,.91,1.09,1.35,1.64,.45,.55,.89,1.11,1.32,1.67,.44,.56,.87,1.12,1.29,1.69,.43,.57,.85,1.14,1.26,1.72,.37,.51,.72,1.02,1.07,1.53,.07,.09,.13,.18,.19,.27,.36,.52,.71,1.04,1.06,1.57,.06,.09,.11,.17,.16,.25,.01,.02,.02,.03,.04,.05,.35,.54,.7,1.08,1.04,1.63,.77,1.2,1.5,2.42,2.21,3.66,.25,.42,.49,.84,.72,1.27,.16,.26,.3,.53,.45,.79,.28,.51,.55,1.02,.81,1.53,.06,.1,.12,.2,.16,.3,.02,.04,.04,.07,.06,.11,.2,.37,.39,.73,.56,1.1,.04,.06,.06,.11,.09,.17,.1,.19,.19,.38,.29,.56,.2,.39,.39,.78,.57,1.17,.04,.07,.08,.15,.11,.22,.13,.27,.26,.54,.39,.81,.05,.12,.11,.24,.17,.36,.05,.11,.1,.22,.15,.33,.04,.08,.08,.17,.11,.25,.39,.84,.76,1.68,1.13,2.53,.03,.06,.05,.12,.08,.18,.26,.6,.51,1.21,.75,1.81,.16,.4,.32,.81,.48,1.21,.25,.62,.49,1.25,.72,1.89,.17,.46,.34,.92,.5,1.38,.15,.4,.29,.81,.42,1.21,.17,.48,.34,.97,.49,1.46,.16,.47,.31,.95,.46,1.43,.19,.62,.38,1.24,.56,1.86,.14,.45,.26,.9,.39,1.35,.1,.35,.19,.69,.28,1.04,.15,.54,.29,1.08,.42,1.62,.18,.71,.35,1.42,.51,2.13,.17,.72,.32,1.43,.47,2.15,.09,.4,.17,.8,.24,1.2,.1,.5,.2,.99,.28,1.49,.05,.26,.1,.52,.14,.78,.01,.06,.02,.13,.03,.19,.08,.42,.15,.83,.21,1.26,.07,.41,.14,.83,.19,1.25,.04,.25,.08,.51,.11,.76,.08,.5,.14,1.01,.21,1.51,.07,.55,.14,1.1,.19,1.65,.04,.29,.07,.58,.1,.87,.04,.36,.07,.72,.1,1.08,.05,.5,.1,1,.14,1.51,0,.05,0,.11,0,.16,.01,.17,.03,.34,.03,.52,.04,.52,.08,1.04,.11,1.57,.01,.1,.01,.2,.02,.3,.02,.3,.03,.6,.04,.9,.04,.81,.07,1.62,.09,2.44,.01,.03,.01,.06,.01,.1Z"/>
      <path class="cls-1" d="M324.13,351.52c-3.38,4.85-6.41,9.96-9.06,15.3-1.77,3.54-3.37,7.19-4.79,10.92-10.75-5.71-22.45-9.84-34.8-12.08,.01-.08,.02-.16,.03-.25,.06-.43,.12-.86,.19-1.29,.08-.54,.17-1.08,.26-1.62,.08-.48,.16-.96,.25-1.43,.04-.23,.08-.45,.12-.67,.02-.11,.04-.22,.07-.33,.07-.41,.15-.82,.24-1.23,.1-.49,.2-.98,.31-1.47,0-.02,.01-.04,.01-.06,.09-.39,.17-.79,.27-1.18,.09-.4,.18-.81,.28-1.21,.21-.87,.43-1.73,.66-2.58,.14-.51,.28-1.01,.42-1.52,.13-.46,.26-.92,.4-1.38,0-.01,.01-.02,.01-.03,.6-2.01,1.26-4,1.98-5.97,.27-.76,.55-1.51,.85-2.26,.35-.9,.71-1.8,1.08-2.68,.21-.5,.42-1,.64-1.49,.19-.43,.38-.87,.58-1.3,.01-.03,.02-.05,.03-.08,.37-.81,.75-1.63,1.14-2.43,.17-.35,.34-.7,.52-1.05,.23-.47,.47-.94,.71-1.41,.02,0,.03,0,.04,.01,1.37,.44,2.73,.9,4.07,1.38,.48,.17,.97,.35,1.45,.53,.34,.13,.67,.25,1.01,.39,.38,.15,.76,.3,1.14,.45,.08,.04,.17,.07,.25,.11,.16,.05,.31,.11,.46,.18,.57,.23,1.14,.47,1.71,.72,.66,.28,1.31,.57,1.97,.87,1.17,.52,2.34,1.08,3.49,1.66,.07,.04,.15,.07,.22,.11,.09,.03,.18,.08,.27,.13,.6,.3,1.21,.61,1.8,.93,1.27,.67,2.52,1.36,3.75,2.07,.62,.35,1.23,.72,1.84,1.09,.61,.36,1.22,.74,1.82,1.12,.6,.38,1.2,.76,1.79,1.15,.59,.39,1.18,.79,1.77,1.19,1.17,.81,2.32,1.63,3.46,2.48,.57,.43,1.13,.86,1.69,1.29,.57,.44,1.12,.88,1.67,1.32,.55,.45,1.1,.9,1.64,1.35,.07,.05,.14,.11,.21,.18,.02,.02,.04,.04,.06,.06t.02,.01Z"/>
      <path class="cls-1" d="M274.63,327.72c-.74,1.51-1.45,3.04-2.12,4.58-.68,1.54-1.33,3.1-1.93,4.68-.62,1.57-1.19,3.16-1.73,4.77-.28,.8-.55,1.61-.8,2.42-.01,.02-.01,.04-.02,.06-.25,.79-.49,1.58-.72,2.38-.24,.81-.47,1.64-.69,2.46-.23,.82-.44,1.65-.64,2.49-.22,.83-.41,1.66-.59,2.5-.2,.84-.38,1.68-.54,2.53-.18,.84-.34,1.69-.49,2.54-.12,.67-.24,1.33-.34,1.99-.05,.26-.09,.52-.12,.77-.12,.73-.23,1.46-.32,2.2h-.01c-3.26-.27-6.55-.4-9.88-.4s-6.64,.13-9.9,.4v-.03c-.11-.77-.22-1.53-.34-2.29-.14-.86-.28-1.71-.43-2.57-.3-1.66-.63-3.31-.99-4.95,0-.04-.02-.08-.03-.13-.16-.69-.32-1.38-.49-2.07-.03-.13-.06-.25-.09-.38,0-.03-.01-.06-.02-.09-.4-1.66-.85-3.3-1.33-4.93-.47-1.64-.99-3.27-1.54-4.88-.28-.8-.56-1.6-.85-2.4s-.59-1.59-.89-2.38c-1.22-3.16-2.57-6.26-4.05-9.28,.87-.17,1.73-.33,2.6-.48,.64-.11,1.28-.21,1.92-.3,.03,0,.06-.01,.09-.01,.2-.04,.41-.07,.62-.09,.1-.02,.2-.03,.3-.05,.52-.08,1.04-.15,1.56-.21,.3-.05,.61-.08,.93-.11,.1-.01,.21-.03,.31-.04,.66-.08,1.33-.15,2-.22,.87-.08,1.75-.15,2.63-.22,.7-.05,1.4-.09,2.1-.13,.08,0,.17,0,.25,0,.25-.01,.5-.03,.75-.04,.56-.02,1.12-.05,1.68-.06,.27-.01,.54-.02,.81-.02,.8-.02,1.6-.03,2.4-.03,.66,0,1.32,0,1.98,.02h.17c.07,0,.14,0,.21,0,.15,0,.3,0,.45,.01,.85,.02,1.7,.05,2.54,.09,.6,.03,1.2,.06,1.8,.11,.33,.01,.66,.04,.98,.06,.54,.04,1.07,.09,1.6,.14,.08,.01,.17,.02,.25,.03,.08,0,.16,.01,.24,.02h.06c.11,0,.22,.01,.33,.03,.02,0,.05,0,.07,0,.04,0,.09,.01,.13,.01,.57,.05,1.13,.11,1.69,.18,.31,.03,.61,.06,.91,.11,.13,0,.26,.03,.39,.05,.68,.08,1.35,.17,2.01,.27,.87,.13,1.72,.26,2.58,.41,.85,.15,1.7,.3,2.55,.47Z"/>
      <path class="cls-1" d="M186.6,384c-18,11.99-32.62,28.68-42.11,48.29,0-.23,.01-.46,.01-.69,.01-.26,.02-.52,.03-.78,.01-.25,.02-.49,.03-.74,.01-.14,.01-.28,.02-.41,0-.41,.04-.82,.06-1.22,.02-.23,.03-.46,.05-.69,0-.14,.01-.28,.02-.41,0-.21,.03-.42,.05-.63,.03-.39,.06-.77,.09-1.15,.03-.36,.06-.71,.1-1.07,.04-.45,.09-.9,.13-1.34,0-.02,0-.04,0-.06,.02-.19,.04-.38,.06-.56,.06-.51,.12-1.02,.18-1.52,.06-.46,.12-.92,.19-1.38,.03-.27,.07-.54,.12-.8,.07-.51,.15-1.01,.23-1.51,.03-.18,.06-.36,.09-.53,0-.06,.02-.11,.03-.17,.07-.47,.16-.95,.24-1.41,.07-.37,.14-.74,.21-1.1,.12-.61,.24-1.21,.37-1.81,.12-.6,.25-1.19,.39-1.78,.16-.71,.33-1.42,.51-2.13,.23-.91,.47-1.81,.72-2.71,.33-1.2,.68-2.39,1.05-3.57,.22-.69,.45-1.38,.68-2.06,.23-.7,.47-1.39,.72-2.07,.49-1.36,1-2.7,1.55-4.03,.27-.67,.54-1.33,.83-1.99,.28-.66,.57-1.32,.87-1.97,.23-.52,.46-1.03,.71-1.54,.24-.53,.5-1.05,.75-1.57,.04-.08,.08-.17,.13-.25,.19-.39,.38-.77,.58-1.15,.28-.56,.56-1.1,.86-1.65,.2-.39,.41-.79,.63-1.18l.18-.33c.4-.72,.81-1.45,1.23-2.16,.02-.04,.04-.07,.06-.11,.27-.47,.55-.94,.83-1.4,.66-1.1,1.34-2.18,2.04-3.25,.41-.64,.83-1.27,1.26-1.89,.52-.77,1.06-1.53,1.6-2.28,.12-.16,.23-.33,.35-.49,.48-.65,.95-1.29,1.44-1.92,.06-.08,.12-.16,.18-.24,.41-.54,.83-1.07,1.25-1.59,.78-.99,1.58-1.96,2.4-2.92,.08-.09,.16-.19,.24-.28,.29-.35,.59-.68,.89-1.02,.44-.5,.88-.98,1.32-1.47s.89-.97,1.35-1.45c2.13,3.17,4.1,6.46,5.9,9.86,2.43,4.57,4.53,9.34,6.29,14.28Z"/>
      <path class="cls-1" d="M231.89,365.66c-2.6,.47-5.18,1.03-7.72,1.67-9.52,2.39-18.6,5.91-27.08,10.41-1.42-3.74-3.02-7.38-4.79-10.93-2.65-5.33-5.68-10.44-9.06-15.29,.09-.09,.18-.16,.28-.24,.54-.46,1.09-.91,1.64-1.35,.55-.45,1.11-.89,1.67-1.32,.56-.44,1.12-.87,1.69-1.29,.61-.46,1.23-.91,1.86-1.36,.34-.24,.68-.48,1.02-.71,.32-.24,.64-.46,.97-.67,.32-.22,.64-.44,.96-.65,.6-.41,1.21-.8,1.82-1.19,.73-.47,1.47-.92,2.21-1.37,.61-.37,1.22-.73,1.84-1.08,.34-.2,.69-.4,1.04-.59,.02-.01,.03-.02,.05-.03,.39-.23,.78-.45,1.17-.65,.06-.04,.13-.07,.19-.11,.43-.23,.86-.46,1.3-.69,.63-.33,1.26-.66,1.9-.98,.53-.27,1.07-.54,1.61-.79,.75-.37,1.5-.72,2.27-1.06,.65-.3,1.31-.59,1.97-.87,.66-.28,1.32-.56,1.98-.83,.52-.22,1.05-.43,1.59-.63,.33-.14,.66-.26,1-.38,.48-.18,.96-.36,1.45-.54,1.36-.49,2.73-.95,4.11-1.39,1.9,3.68,3.6,7.48,5.08,11.39,.21,.55,.42,1.12,.62,1.68,.35,1,.7,2.01,1.03,3.02,.17,.51,.33,1.02,.49,1.53,.16,.51,.31,1.02,.46,1.53,.3,1.03,.59,2.06,.86,3.1,.14,.51,.27,1.01,.39,1.53,.02,.05,.03,.11,.04,.16,0,.01,.01,.03,.01,.04,.12,.47,.23,.93,.33,1.4,.22,.9,.41,1.8,.59,2.7,.09,.45,.18,.9,.26,1.35,.01,.05,.02,.09,.03,.14,.05,.19,.08,.39,.11,.58,.2,1.06,.38,2.14,.54,3.21,.07,.43,.13,.86,.19,1.29,0,.04,.01,.09,.02,.13,0,.04,.01,.09,.01,.13Z"/>
      <path class="cls-1" d="M309.15,460.39c-.15-.12-.29-.26-.43-.39-.39-.36-.77-.72-1.15-1.11-.34-.33-.68-.66-1.02-1-.34-.34-.67-.69-1.01-1.03-.32-.32-.64-.64-.95-.97-.49-.51-.97-1.02-1.44-1.54-.99-1.07-1.96-2.17-2.9-3.28-.42-.51-.84-1.01-1.25-1.52-.29-.35-.56-.71-.84-1.07-.6-.75-1.19-1.5-1.77-2.27-.33-.42-.64-.85-.95-1.28-.53-.72-1.04-1.45-1.55-2.19-.16-.22-.32-.44-.47-.67-.16-.23-.31-.45-.46-.68-.26-.38-.5-.75-.75-1.13s-.49-.76-.73-1.14c-.28-.44-.56-.88-.84-1.32-.53-.87-1.05-1.75-1.56-2.63-.2-.35-.41-.69-.6-1.03-.34-.6-.67-1.2-1.01-1.81-.36-.67-.71-1.34-1.06-2.02-.11-.22-.21-.44-.32-.66-.26-.51-.51-1.02-.77-1.54-.47-.96-.93-1.93-1.35-2.91-.2-.43-.39-.85-.57-1.28-.18-.43-.37-.86-.55-1.3-.21-.5-.42-1.01-.62-1.52-.17-.42-.34-.83-.49-1.26-.17-.42-.33-.84-.48-1.27-.2-.51-.39-1.03-.57-1.55-.16-.44-.31-.88-.46-1.33-.15-.45-.29-.89-.44-1.34-.16-.48-.32-.96-.47-1.45-.17-.55-.34-1.1-.5-1.66-.16-.56-.32-1.12-.47-1.68-.03-.12-.07-.24-.11-.36s-.07-.23-.1-.35c-.04-.15-.07-.29-.11-.43-.34-1.29-.66-2.6-.95-3.91-.09-.39-.16-.79-.25-1.19-.11-.52-.22-1.03-.32-1.55-.11-.52-.21-1.04-.3-1.56-.09-.53-.18-1.06-.27-1.59-.15-.93-.3-1.86-.43-2.8-.08-.56-.15-1.13-.22-1.69-.06-.47-.11-.93-.17-1.4-.05-.47-.1-.93-.14-1.4-.03-.28-.06-.56-.08-.84-.03-.28-.05-.56-.07-.84-.09-1.01-.15-2.02-.2-3.04-.01-.12-.02-.25-.03-.38,0-.09-.01-.18-.01-.27-.02-.16-.03-.31-.03-.47-.02-.31-.03-.62-.04-.94-.02-.49-.03-.98-.04-1.48-.02-.81-.03-1.62-.03-2.43,0-.23,0-.45,.01-.68l3.43-.66c-.41-.4-.82-.8-1.25-1.18,10.62,2.28,20.67,6.1,29.9,11.24-2.67,9.98-4.09,20.47-4.09,31.28,0,13.92,2.36,27.29,6.7,39.75Z"/>
      <path class="cls-1" d="M360.03,459.9v.02c-.1,.46-.21,.92-.33,1.38-.01,.05-.03,.1-.04,.15-.06,.21-.11,.42-.16,.63-.06,.22-.11,.43-.17,.64,0,.01,0,.02-.01,.03-.08,.36-.19,.73-.29,1.09,0,.05-.03,.09-.04,.14-.1,.38-.21,.76-.32,1.14-.01,.05-.03,.09-.04,.14-.2,.72-.41,1.44-.64,2.14-.01,.04-.02,.08-.04,.12t-.01,.02c-.04,.14-.09,.28-.14,.42-.03,.1-.06,.21-.1,.31-.03,.11-.07,.23-.11,.34-.17,.57-.36,1.13-.55,1.69-.31,.9-.63,1.79-.96,2.68-.02,.06-.04,.12-.07,.18-.01,.02-.02,.05-.02,.07-.33,.87-.66,1.72-1.01,2.57-.24,.6-.49,1.2-.75,1.8-.25,.6-.51,1.2-.78,1.79-.26,.6-.53,1.18-.81,1.77-.57,1.24-1.17,2.46-1.79,3.67-4.32-1.37-8.52-2.99-12.58-4.86-.14-.06-.28-.12-.41-.19-.32-.16-.64-.32-.97-.47-.84-.41-1.68-.81-2.52-1.24-.48-.24-.96-.5-1.44-.75-.8-.42-1.59-.85-2.37-1.28-.47-.27-.94-.53-1.41-.8-.02-.01-.04-.02-.06-.03h0c-9.3-16.07-14.63-34.71-14.63-54.57,0-8.42,.96-16.63,2.78-24.51,21.14,15.16,36.66,37.67,42.8,63.77Z"/>
      <path class="cls-1" d="M192.92,420.63c0,19.87-5.33,38.5-14.64,54.57h0s0,.02,0,.02c-.01,.01-.03,.02-.05,.02-.47,.27-.94,.54-1.42,.8-.78,.44-1.57,.87-2.36,1.28-.48,.26-.96,.51-1.45,.76-.83,.42-1.67,.83-2.51,1.23-.45,.21-.9,.43-1.35,.64-4.07,1.88-8.28,3.5-12.6,4.87-.62-1.2-1.22-2.42-1.79-3.65-.82-1.76-1.6-3.54-2.34-5.34-.37-.9-.72-1.81-1.06-2.73-.34-.91-.67-1.83-.99-2.76-.32-.92-.63-1.85-.92-2.79-.28-.89-.55-1.79-.81-2.69-.04-.13-.08-.27-.11-.4-.19-.66-.37-1.32-.54-1.99,0-.05-.02-.09-.04-.14-.06-.25-.12-.51-.19-.76-.03-.11-.06-.22-.08-.33-.01-.03-.01-.05-.02-.08-.1-.41-.21-.82-.3-1.23v-.02c6.14-26.09,21.66-48.61,42.8-63.78,1.82,7.88,2.78,16.08,2.78,24.5Z"/>
      <path class="cls-1" d="M232.92,380.63c0,1.52-.04,3.02-.1,4.52-.02,.49-.05,.97-.08,1.45-.03,.51-.06,1.02-.09,1.53-.03,.51-.07,1.01-.11,1.52-.05,.56-.1,1.11-.16,1.67-.04,.47-.09,.94-.14,1.4-.06,.47-.11,.94-.17,1.4-.07,.57-.14,1.13-.22,1.7-.07,.47-.13,.94-.2,1.4-.11,.74-.23,1.47-.36,2.2-.04,.26-.09,.53-.14,.79-.19,1.04-.4,2.07-.62,3.11-.08,.39-.16,.79-.24,1.19-.35,1.56-.73,3.11-1.15,4.64-.17,.64-.35,1.29-.54,1.93-.18,.61-.36,1.22-.55,1.82-.07,.24-.14,.48-.23,.72-.08,.24-.16,.48-.24,.72-.29,.9-.59,1.79-.9,2.68-.19,.52-.38,1.03-.57,1.55-.17,.46-.34,.92-.52,1.37-.15,.39-.3,.78-.46,1.16-.2,.51-.41,1.02-.62,1.52-.18,.43-.36,.86-.55,1.29-.19,.43-.38,.85-.57,1.28-.2,.46-.4,.92-.61,1.37-.24,.52-.49,1.04-.74,1.55-.25,.52-.51,1.03-.77,1.54-.11,.22-.21,.44-.31,.65-.08,.16-.17,.32-.26,.48-.14,.28-.29,.57-.44,.85-.14,.28-.3,.56-.45,.84-.3,.56-.61,1.11-.92,1.67-.03,.06-.07,.12-.1,.18-.16,.28-.34,.56-.5,.84-.25,.44-.51,.89-.77,1.33-.52,.89-1.06,1.76-1.63,2.63-.49,.76-.98,1.52-1.48,2.27-.31,.45-.62,.9-.93,1.35-.51,.74-1.03,1.46-1.56,2.19-.31,.43-.62,.86-.94,1.28-.29,.39-.58,.77-.88,1.14-.02,.03-.04,.05-.06,.08-.27,.35-.55,.7-.83,1.05-.26,.34-.53,.68-.8,1.01-.02,.02-.03,.04-.05,.06-.44,.55-.89,1.09-1.34,1.63-.46,.54-.92,1.07-1.38,1.6-.01,0-.01,.01-.02,.01-.44,.5-.89,1-1.34,1.5-.49,.54-.99,1.07-1.5,1.6-.15,.16-.31,.33-.48,.49l-.48,.48c-.33,.34-.66,.69-1,1.03-.33,.35-.68,.68-1.02,1.01-.38,.37-.77,.73-1.16,1.1l-.42,.39c4.34-12.46,6.7-25.84,6.7-39.76,0-10.81-1.42-21.29-4.09-31.26,8.94-4.98,18.65-8.73,28.9-11.03,1.04-.24,2.1-.46,3.15-.66,.03,.98,.04,1.96,.04,2.95Z"/>
    </g>
  </g>
</svg>